#tb 0: 1/22050
#media_type 0: audio
#codec_id 0: adpcm_ea_maxis_xa
#sample_rate 0: 22050
#channel_layout 0: 3
#channel_layout_name 0: stereo
0,          0,          0,       28,       30, 0x51750711
0,         28,         28,       28,       30, 0x9ca20c2a
0,         56,         56,       28,       30, 0x7551081f
0,         84,         84,       28,       30, 0x09540063
0,        112,        112,       28,       30, 0x02c40018
0,        140,        140,       28,       30, 0x0f6c0117
0,        168,        168,       28,       30, 0x2aab0315
0,        196,        196,       28,       30, 0x0e6d0117
0,        224,        224,       28,       30, 0x04770036
0,        252,        252,       28,       30, 0x939c090f
0,        280,        280,       28,       30, 0xde511116
0,        308,        308,       28,       30, 0x2f0f13f5
0,        336,        336,       28,       30, 0x65bb0630
0,        364,        364,       28,       30, 0x1f7a0333
0,        392,        392,       28,       30, 0xa3d71008
0,        420,        420,       28,       30, 0x69120801
0,        448,        448,       28,       30, 0x1e7b0207
0,        476,        476,       28,       30, 0x02c40018
0,        504,        504,       28,       30, 0x0d050126
0,        532,        532,       28,       30, 0x41c10333
0,        560,        560,       28,       30, 0x16a10207
0,        588,        588,       28,       30, 0x0f210207
0,        616,        616,       28,       30, 0x4e4b073e
0,        644,        644,       28,       30, 0xa6f20d1a
0,        672,        672,       28,       30, 0xe1e40ff9
0,        700,        700,       28,       30, 0x868b090f
0,        728,        728,       28,       30, 0x8c85091e
0,        756,        756,       28,       30, 0x5a21094b
0,        784,        784,       28,       30, 0x993c0900
0,        812,        812,       28,       30, 0x5b6b04e6
